<svg width="640" height="360" viewBox="0 0 640 360" fill="none" xmlns="http://www.w3.org/2000/svg">
  <rect width="640" height="360" rx="28" fill="#101413"/>
  <rect x="24" y="24" width="592" height="312" rx="22" fill="url(#paint0_linear)"/>
  <rect x="52" y="52" width="536" height="256" rx="18" fill="#171D1B" fill-opacity="0.88"/>
  <circle cx="320" cy="150" r="54" fill="#F0EEE7" fill-opacity="0.94"/>
  <path d="M320 96C333 124 333 176 320 204C307 176 307 124 320 96Z" fill="#74C69D"/>
  <path d="M266 150C294 137 346 137 374 150C346 163 294 163 266 150Z" fill="#F4D35E"/>
  <path d="M282 112C311 123 348 160 358 188C330 177 293 140 282 112Z" fill="#4CC9F0"/>
  <path d="M358 112C347 140 310 177 282 188C292 160 329 123 358 112Z" fill="#F0EEE7"/>
  <rect x="116" y="244" width="408" height="10" rx="5" fill="#F0EEE7" fill-opacity="0.78"/>
  <rect x="166" y="270" width="308" height="8" rx="4" fill="#F0EEE7" fill-opacity="0.38"/>
  <defs>
    <linearGradient id="paint0_linear" x1="24" y1="24" x2="616" y2="336" gradientUnits="userSpaceOnUse">
      <stop stop-color="#F4D35E"/>
      <stop offset="0.52" stop-color="#74C69D"/>
      <stop offset="1" stop-color="#4CC9F0"/>
    </linearGradient>
  </defs>
</svg>
